<svg width="46" height="46" viewBox="0 0 46 46" fill="none" xmlns="http://www.w3.org/2000/svg">
    <rect x="3" y="3" width="40" height="40" rx="20" fill="#D1FADF"/>
    <g clip-path="url(#clip0_5177_226621)">
        <path d="M20.4998 23.0001L22.1665 24.6667L25.9165 20.9167M19.1113 16.1823C19.7812 16.1289 20.4171 15.8655 20.9286 15.4296C22.1221 14.4125 23.8776 14.4125 25.0711 15.4296C25.5826 15.8655 26.2185 16.1289 26.8884 16.1823C28.4516 16.3071 29.6928 17.5484 29.8176 19.1116C29.871 19.7814 30.1345 20.4173 30.5703 20.9288C31.5875 22.1224 31.5875 23.8778 30.5703 25.0714C30.1345 25.5828 29.871 26.2187 29.8176 26.8886C29.6928 28.4518 28.4516 29.6931 26.8884 29.8178C26.2185 29.8713 25.5826 30.1347 25.0711 30.5706C23.8776 31.5877 22.1221 31.5877 20.9286 30.5706C20.4171 30.1347 19.7812 29.8713 19.1113 29.8178C17.5481 29.6931 16.3068 28.4518 16.1821 26.8886C16.1286 26.2187 15.8652 25.5828 15.4294 25.0714C14.4122 23.8778 14.4122 22.1224 15.4294 20.9288C15.8652 20.4173 16.1286 19.7814 16.1821 19.1116C16.3068 17.5484 17.5481 16.3071 19.1113 16.1823Z"
              stroke="#039855" stroke-width="1.66667" stroke-linecap="round" stroke-linejoin="round"/>
    </g>
    <rect x="3" y="3" width="40" height="40" rx="20" stroke="#ECFDF3" stroke-width="6"/>
    <defs>
        <clipPath id="clip0_5177_226621">
            <rect width="20" height="20" fill="white" transform="translate(13 13)"/>
        </clipPath>
    </defs>
</svg>
