<svg width="48" height="48" viewBox="0 0 48 48" fill="none" xmlns="http://www.w3.org/2000/svg">
    <path d="M30 34.52V35.5H18V34.52C18 30.642 16.577 26.899 14 24L13.569 23.515C11.2692 20.9152 9.99978 17.564 10 14.093C10 6.36 16.268 0 24 0C31.732 0 38 6.36 38 14.093C38 17.553 36.73 20.929 34.431 23.515L34 24C31.4235 26.8986 30.0002 30.6418 30 34.52Z"
          fill="url(#paint0_radial_6560_41954)"/>
    <path d="M29.5 34.52V35H18.5V34.52C18.5 30.52 17.032 26.658 14.374 23.668L13.942 23.183C11.7239 20.6745 10.4996 17.4415 10.5 14.093C10.5 6.633 16.548 0.5 24 0.5C31.452 0.5 37.5 6.633 37.5 14.093C37.5004 17.4415 36.2761 20.6745 34.058 23.183L33.626 23.668C30.9683 26.6581 29.5002 30.5195 29.5 34.52Z"
          stroke="#FF6A00" stroke-opacity="0.05"/>
    <path d="M18 41.844V34.5L20.678 34.723C22.888 34.907 25.111 34.907 27.322 34.723L30 34.5V41.844C30 42.681 29.6675 43.4838 29.0756 44.0756C28.4838 44.6675 27.681 45 26.844 45C26.317 45 25.824 45.264 25.532 45.703L25.474 45.789C25.3122 46.0316 25.0929 46.2304 24.8358 46.368C24.5787 46.5055 24.2916 46.5775 24 46.5775C23.7084 46.5775 23.4213 46.5055 23.1642 46.368C22.9071 46.2304 22.6878 46.0316 22.526 45.789L22.468 45.703C22.324 45.4869 22.129 45.3097 21.9001 45.1871C21.6712 45.0645 21.4156 45.0002 21.156 45C20.319 45 19.5162 44.6675 18.9244 44.0756C18.3325 43.4838 18 42.681 18 41.844Z"
          fill="#9B9B9B"/>
    <path d="M18 41.844V34.5L20.678 34.723C22.888 34.907 25.111 34.907 27.322 34.723L30 34.5V41.844C30 42.681 29.6675 43.4838 29.0756 44.0756C28.4838 44.6675 27.681 45 26.844 45C26.317 45 25.824 45.264 25.532 45.703L25.474 45.789C25.3122 46.0316 25.0929 46.2304 24.8358 46.368C24.5787 46.5055 24.2916 46.5775 24 46.5775C23.7084 46.5775 23.4213 46.5055 23.1642 46.368C22.9071 46.2304 22.6878 46.0316 22.526 45.789L22.468 45.703C22.324 45.4869 22.129 45.3097 21.9001 45.1871C21.6712 45.0645 21.4156 45.0002 21.156 45C20.319 45 19.5162 44.6675 18.9244 44.0756C18.3325 43.4838 18 42.681 18 41.844Z"
          fill="url(#paint1_linear_6560_41954)"/>
    <path d="M18 41.844V34.5L20.678 34.723C22.888 34.907 25.111 34.907 27.322 34.723L30 34.5V41.844C30 42.681 29.6675 43.4838 29.0756 44.0756C28.4838 44.6675 27.681 45 26.844 45C26.317 45 25.824 45.264 25.532 45.703L25.474 45.789C25.3122 46.0316 25.0929 46.2304 24.8358 46.368C24.5787 46.5055 24.2916 46.5775 24 46.5775C23.7084 46.5775 23.4213 46.5055 23.1642 46.368C22.9071 46.2304 22.6878 46.0316 22.526 45.789L22.468 45.703C22.324 45.4869 22.129 45.3097 21.9001 45.1871C21.6712 45.0645 21.4156 45.0002 21.156 45C20.319 45 19.5162 44.6675 18.9244 44.0756C18.3325 43.4838 18 42.681 18 41.844Z"
          fill="url(#paint2_linear_6560_41954)"/>
    <path d="M18.5 41.844V35.044L20.637 35.222C22.875 35.408 25.125 35.408 27.363 35.222L29.5 35.043V41.844C29.5 42.5484 29.2202 43.224 28.7221 43.7221C28.224 44.2202 27.5484 44.5 26.844 44.5C26.15 44.5 25.501 44.847 25.116 45.425L25.058 45.512C24.9418 45.6861 24.7845 45.8288 24.5999 45.9275C24.4154 46.0262 24.2093 46.0779 24 46.0779C23.7907 46.0779 23.5846 46.0262 23.4001 45.9275C23.2155 45.8288 23.0582 45.6861 22.942 45.512L22.884 45.425C22.6943 45.1406 22.4373 44.9073 22.1359 44.746C21.8345 44.5846 21.4979 44.5001 21.156 44.5C20.4516 44.5 19.776 44.2202 19.2779 43.7221C18.7798 43.224 18.5 42.5484 18.5 41.844Z"
          stroke="black" stroke-opacity="0.2"/>
    <defs>
        <radialGradient id="paint0_radial_6560_41954" cx="0" cy="0" r="1" gradientUnits="userSpaceOnUse"
                        gradientTransform="translate(24 7) rotate(90) scale(28.5 22.4789)">
            <stop stop-color="#FFFB8F"/>
            <stop offset="1" stop-color="#FFBC11"/>
        </radialGradient>
        <linearGradient id="paint1_linear_6560_41954" x1="18" y1="38.5" x2="30" y2="38.5"
                        gradientUnits="userSpaceOnUse">
            <stop stop-color="white" stop-opacity="0"/>
            <stop offset="0.438" stop-color="white" stop-opacity="0.42"/>
            <stop offset="1" stop-color="white" stop-opacity="0"/>
        </linearGradient>
        <linearGradient id="paint2_linear_6560_41954" x1="24" y1="45" x2="24" y2="44" gradientUnits="userSpaceOnUse">
            <stop stop-opacity="0.55"/>
            <stop offset="1" stop-opacity="0"/>
        </linearGradient>
    </defs>
</svg>
