<svg width="48" height="48" viewBox="0 0 48 48" fill="none" xmlns="http://www.w3.org/2000/svg">
    <g clip-path="url(#clip0_6560_41942)">
        <mask id="mask0_6560_41942" style="mask-type:luminance" maskUnits="userSpaceOnUse" x="0" y="0" width="48"
              height="48">
            <path d="M0 0H48V48H0V0Z" fill="white"/>
        </mask>
        <g mask="url(#mask0_6560_41942)">
            <path d="M20.9129 4.405C22.0729 2.43 24.9269 2.43 26.0869 4.405L46.3939 38.98C47.5679 40.98 46.1259 43.499 43.8069 43.499H3.19287C0.873868 43.499 -0.568132 40.979 0.605868 38.979L20.9129 4.405Z"
                  fill="#FFBC11"/>
            <path d="M25.6561 4.65801L45.9621 39.234C46.9421 40.9 45.7401 43 43.8071 43H3.1931C1.2611 43 0.0591042 40.9 1.0381 39.234L21.3441 4.65801C22.3111 3.01301 24.6891 3.01301 25.6561 4.65801Z"
                  stroke="black" stroke-opacity="0.05"/>
            <path d="M23.5 39C24.8807 39 26 37.8807 26 36.5C26 35.1193 24.8807 34 23.5 34C22.1193 34 21 35.1193 21 36.5C21 37.8807 22.1193 39 23.5 39Z"
                  fill="#591515"/>
            <path d="M25.8439 16.495L25.0939 28.503C25.069 28.9089 24.8902 29.2899 24.594 29.5685C24.2978 29.8471 23.9065 30.0022 23.4999 30.0022C23.0933 30.0022 22.702 29.8471 22.4058 29.5685C22.1096 29.2899 21.9308 28.9089 21.9059 28.503L21.1559 16.495C21.1349 16.1743 21.18 15.8527 21.2883 15.5501C21.3966 15.2476 21.5659 14.9704 21.7856 14.7359C22.0053 14.5014 22.2708 14.3144 22.5657 14.1866C22.8605 14.0588 23.1785 13.9928 23.4999 13.9928C23.8213 13.9928 24.1392 14.0588 24.4341 14.1866C24.729 14.3144 24.9945 14.5014 25.2142 14.7359C25.4339 14.9704 25.6031 15.2476 25.7115 15.5501C25.8198 15.8527 25.8648 16.1743 25.8439 16.495Z"
                  fill="#591515"/>
        </g>
    </g>
    <defs>
        <clipPath id="clip0_6560_41942">
            <rect width="48" height="48" fill="white"/>
        </clipPath>
    </defs>
</svg>
